<svg width="609" height="174" viewBox="0 0 609 174" fill="none" xmlns="http://www.w3.org/2000/svg">
<path fill-rule="evenodd" clip-rule="evenodd" d="M96.3629 34.7459C95.1446 34.1368 93.7106 34.1368 92.4923 34.7459L44.4455 58.7693C43.6531 59.1557 42.9722 59.7862 42.5278 60.6191C42.4816 60.7057 42.4383 60.7938 42.398 60.8835C42.1265 61.4863 42.0045 62.1212 42.0175 62.7449V110.74C42.0175 112.379 42.9436 113.878 44.4097 114.611L92.4128 138.613C93.0146 138.93 93.7001 139.109 94.4276 139.109C95.155 139.109 95.8406 138.93 96.4423 138.613L144.445 114.611C145.912 113.878 146.838 112.379 146.838 110.74V62.7449C146.851 62.1191 146.728 61.4819 146.454 60.8771C146.415 60.7897 146.372 60.7036 146.327 60.6191C145.883 59.7862 145.202 59.1557 144.41 58.7694L120.446 46.7875C120.42 46.7743 120.394 46.7613 120.368 46.7487L96.3629 34.7459ZM108.792 50.6372L94.4276 43.4547L56.0214 62.6578L70.3863 69.8403L108.792 50.6372ZM50.6724 69.6598V108.066L90.1001 127.78V89.3736L68.4901 78.5686C68.4619 78.5549 68.4339 78.5409 68.406 78.5266L50.6724 69.6598ZM98.755 127.78L138.183 108.066V69.6598L98.755 89.3736V127.78ZM132.834 62.6578L118.469 55.4754L80.0627 74.6785L94.4276 81.8609L132.834 62.6578Z" fill="url(#paint0_linear_14_31)"/>
<path d="M175.531 110.699V62.7147H194.463C198.102 62.7147 201.203 63.4097 203.764 64.7999C206.326 66.1745 208.278 68.0879 209.622 70.5403C210.981 72.977 211.66 75.7886 211.66 78.975C211.66 82.1615 210.973 84.9731 209.598 87.4098C208.224 89.8465 206.232 91.7443 203.624 93.1033C201.031 94.4622 197.891 95.1417 194.205 95.1417H182.138V87.0115H192.565C194.517 87.0115 196.126 86.6756 197.391 86.004C198.672 85.3167 199.625 84.3717 200.25 83.169C200.89 81.9506 201.21 80.5526 201.21 78.975C201.21 77.3818 200.89 75.9916 200.25 74.8045C199.625 73.6018 198.672 72.6724 197.391 72.0163C196.11 71.3447 194.486 71.0089 192.518 71.0089H185.676V110.699H175.531Z" fill="url(#paint1_linear_14_31)"/>
<path d="M222.208 110.699V62.7147H241.14C244.764 62.7147 247.856 63.3629 250.418 64.6593C252.995 65.9402 254.956 67.7599 256.299 70.1185C257.658 72.4615 258.337 75.2184 258.337 78.3893C258.337 81.5757 257.65 84.317 256.276 86.6132C254.901 88.8937 252.909 90.6431 250.301 91.8615C247.708 93.0798 244.568 93.689 240.882 93.689H228.207V85.5354H239.242C241.179 85.5354 242.788 85.2699 244.069 84.7388C245.349 84.2077 246.302 83.4111 246.927 82.3489C247.567 81.2868 247.888 79.9669 247.888 78.3893C247.888 76.796 247.567 75.4527 246.927 74.3593C246.302 73.2659 245.342 72.4381 244.045 71.8758C242.764 71.2978 241.148 71.0089 239.195 71.0089H232.354V110.699H222.208ZM248.122 88.8624L260.048 110.699H248.848L237.18 88.8624H248.122Z" fill="url(#paint2_linear_14_31)"/>
<path d="M313.561 86.7069C313.561 91.9396 312.569 96.3913 310.585 100.062C308.617 103.733 305.93 106.536 302.525 108.473C299.136 110.395 295.324 111.355 291.091 111.355C286.827 111.355 283 110.387 279.611 108.45C276.221 106.513 273.542 103.709 271.574 100.039C269.606 96.3678 268.622 91.9239 268.622 86.7069C268.622 81.4742 269.606 77.0225 271.574 73.3518C273.542 69.6812 276.221 66.8852 279.611 64.9639C283 63.0271 286.827 62.0586 291.091 62.0586C295.324 62.0586 299.136 63.0271 302.525 64.9639C305.93 66.8852 308.617 69.6812 310.585 73.3518C312.569 77.0225 313.561 81.4742 313.561 86.7069ZM303.275 86.7069C303.275 83.3174 302.767 80.4589 301.752 78.1315C300.752 75.8042 299.339 74.0391 297.511 72.8364C295.684 71.6336 293.544 71.0323 291.091 71.0323C288.639 71.0323 286.499 71.6336 284.672 72.8364C282.844 74.0391 281.423 75.8042 280.407 78.1315C279.408 80.4589 278.908 83.3174 278.908 86.7069C278.908 90.0964 279.408 92.9549 280.407 95.2822C281.423 97.6096 282.844 99.3747 284.672 100.577C286.499 101.78 288.639 102.381 291.091 102.381C293.544 102.381 295.684 101.78 297.511 100.577C299.339 99.3747 300.752 97.6096 301.752 95.2822C302.767 92.9549 303.275 90.0964 303.275 86.7069Z" fill="url(#paint3_linear_14_31)"/>
<path d="M342.045 110.699H325.035V62.7147H342.185C347.012 62.7147 351.167 63.6753 354.65 65.5965C358.133 67.5022 360.812 70.2435 362.686 73.8204C364.576 77.3974 365.521 81.6773 365.521 86.66C365.521 91.6584 364.576 95.9539 362.686 99.5465C360.812 103.139 358.118 105.896 354.603 107.817C351.104 109.738 346.918 110.699 342.045 110.699ZM335.18 102.007H341.623C344.622 102.007 347.145 101.476 349.191 100.413C351.253 99.3356 352.799 97.6721 353.83 95.4228C354.876 93.1579 355.4 90.237 355.4 86.66C355.4 83.1143 354.876 80.2168 353.83 77.9675C352.799 75.7183 351.26 74.0625 349.214 73.0004C347.168 71.9382 344.645 71.4072 341.646 71.4072H335.18V102.007Z" fill="url(#paint4_linear_14_31)"/>
<path d="M406.634 62.7147H416.779V93.8764C416.779 97.3753 415.944 100.437 414.272 103.061C412.617 105.685 410.297 107.731 407.314 109.2C404.33 110.652 400.855 111.379 396.887 111.379C392.904 111.379 389.421 110.652 386.438 109.2C383.454 107.731 381.135 105.685 379.479 103.061C377.823 100.437 376.995 97.3753 376.995 93.8764V62.7147H387.141V93.0095C387.141 94.8371 387.539 96.4615 388.335 97.883C389.148 99.3044 390.288 100.421 391.756 101.233C393.224 102.046 394.935 102.452 396.887 102.452C398.855 102.452 400.566 102.046 402.018 101.233C403.487 100.421 404.619 99.3044 405.416 97.883C406.228 96.4615 406.634 94.8371 406.634 93.0095V62.7147Z" fill="url(#paint5_linear_14_31)"/>
<path d="M427.257 71.0791V62.7147H466.667V71.0791H451.976V110.699H441.948V71.0791H427.257Z" fill="url(#paint6_linear_14_31)"/>
<path d="M519.02 86.7069C519.02 91.9396 518.028 96.3913 516.044 100.062C514.076 103.733 511.389 106.536 507.984 108.473C504.595 110.395 500.783 111.355 496.55 111.355C492.286 111.355 488.459 110.387 485.07 108.45C481.68 106.513 479.001 103.709 477.033 100.039C475.065 96.3678 474.081 91.9239 474.081 86.7069C474.081 81.4742 475.065 77.0225 477.033 73.3518C479.001 69.6812 481.68 66.8852 485.07 64.9639C488.459 63.0271 492.286 62.0586 496.55 62.0586C500.783 62.0586 504.595 63.0271 507.984 64.9639C511.389 66.8852 514.076 69.6812 516.044 73.3518C518.028 77.0225 519.02 81.4742 519.02 86.7069ZM508.734 86.7069C508.734 83.3174 508.226 80.4589 507.211 78.1315C506.211 75.8042 504.798 74.0391 502.97 72.8364C501.143 71.6336 499.003 71.0323 496.55 71.0323C494.098 71.0323 491.958 71.6336 490.131 72.8364C488.303 74.0391 486.882 75.8042 485.866 78.1315C484.867 80.4589 484.367 83.3174 484.367 86.7069C484.367 90.0964 484.867 92.9549 485.866 95.2822C486.882 97.6096 488.303 99.3747 490.131 100.577C491.958 101.78 494.098 102.381 496.55 102.381C499.003 102.381 501.143 101.78 502.97 100.577C504.798 99.3747 506.211 97.6096 507.211 95.2822C508.226 92.9549 508.734 90.0964 508.734 86.7069Z" fill="url(#paint7_linear_14_31)"/>
<path d="M556.524 76.5149C556.337 74.6249 555.532 73.1566 554.111 72.1101C552.689 71.0635 550.76 70.5403 548.324 70.5403C546.668 70.5403 545.27 70.7745 544.13 71.2431C542.99 71.6961 542.115 72.3287 541.506 73.141C540.912 73.9532 540.615 74.8748 540.615 75.9057C540.584 76.7648 540.764 77.5146 541.154 78.155C541.56 78.7954 542.115 79.3499 542.818 79.8185C543.521 80.2715 544.333 80.6698 545.254 81.0134C546.176 81.3414 547.16 81.6226 548.207 81.8569L552.518 82.8878C554.611 83.3564 556.532 83.9812 558.281 84.7622C560.031 85.5432 561.546 86.5038 562.827 87.6441C564.108 88.7843 565.1 90.1277 565.802 91.674C566.521 93.2204 566.888 94.9933 566.904 96.9926C566.888 99.9292 566.138 102.475 564.654 104.631C563.186 106.771 561.062 108.434 558.281 109.621C555.517 110.793 552.182 111.379 548.277 111.379C544.403 111.379 541.029 110.785 538.155 109.598C535.297 108.411 533.063 106.654 531.454 104.326C529.861 101.983 529.025 99.0857 528.947 95.6337H538.764C538.874 97.2425 539.334 98.5859 540.147 99.6636C540.975 100.726 542.076 101.53 543.45 102.077C544.84 102.608 546.41 102.874 548.16 102.874C549.878 102.874 551.37 102.624 552.635 102.124C553.916 101.624 554.908 100.929 555.61 100.039C556.313 99.1482 556.665 98.1251 556.665 96.9692C556.665 95.8914 556.345 94.9855 555.704 94.2513C555.079 93.5172 554.158 92.8924 552.939 92.3769C551.737 91.8615 550.261 91.3929 548.511 90.9711L543.286 89.6591C539.241 88.675 536.046 87.1364 533.703 85.0434C531.36 82.9503 530.197 80.1309 530.212 76.5852C530.197 73.6799 530.97 71.1416 532.532 68.9705C534.11 66.7993 536.273 65.1045 539.022 63.8862C541.771 62.6678 544.895 62.0586 548.394 62.0586C551.955 62.0586 555.064 62.6678 557.719 63.8862C560.39 65.1045 562.468 66.7993 563.951 68.9705C565.435 71.1416 566.201 73.6564 566.248 76.5149H556.524Z" fill="url(#paint8_linear_14_31)"/>
<defs>
<linearGradient id="paint0_linear_14_31" x1="11.5" y1="66.5" x2="601" y2="139" gradientUnits="userSpaceOnUse">
<stop stop-color="#2551AA"/>
<stop offset="1" stop-color="#37AB54"/>
</linearGradient>
<linearGradient id="paint1_linear_14_31" x1="11.5" y1="66.5" x2="601" y2="139" gradientUnits="userSpaceOnUse">
<stop stop-color="#2551AA"/>
<stop offset="1" stop-color="#37AB54"/>
</linearGradient>
<linearGradient id="paint2_linear_14_31" x1="11.5" y1="66.5" x2="601" y2="139" gradientUnits="userSpaceOnUse">
<stop stop-color="#2551AA"/>
<stop offset="1" stop-color="#37AB54"/>
</linearGradient>
<linearGradient id="paint3_linear_14_31" x1="11.5" y1="66.5" x2="601" y2="139" gradientUnits="userSpaceOnUse">
<stop stop-color="#2551AA"/>
<stop offset="1" stop-color="#37AB54"/>
</linearGradient>
<linearGradient id="paint4_linear_14_31" x1="11.5" y1="66.5" x2="601" y2="139" gradientUnits="userSpaceOnUse">
<stop stop-color="#2551AA"/>
<stop offset="1" stop-color="#37AB54"/>
</linearGradient>
<linearGradient id="paint5_linear_14_31" x1="11.5" y1="66.5" x2="601" y2="139" gradientUnits="userSpaceOnUse">
<stop stop-color="#2551AA"/>
<stop offset="1" stop-color="#37AB54"/>
</linearGradient>
<linearGradient id="paint6_linear_14_31" x1="11.5" y1="66.5" x2="601" y2="139" gradientUnits="userSpaceOnUse">
<stop stop-color="#2551AA"/>
<stop offset="1" stop-color="#37AB54"/>
</linearGradient>
<linearGradient id="paint7_linear_14_31" x1="11.5" y1="66.5" x2="601" y2="139" gradientUnits="userSpaceOnUse">
<stop stop-color="#2551AA"/>
<stop offset="1" stop-color="#37AB54"/>
</linearGradient>
<linearGradient id="paint8_linear_14_31" x1="11.5" y1="66.5" x2="601" y2="139" gradientUnits="userSpaceOnUse">
<stop stop-color="#2551AA"/>
<stop offset="1" stop-color="#37AB54"/>
</linearGradient>
</defs>
</svg>
